<svg width="532" height="532" viewBox="0 0 532 532" fill="none" xmlns="http://www.w3.org/2000/svg">
<g clip-path="url(#clip0_1_17)">
<path d="M165 32C108 56 60 101 34 159L282 113" fill="#2B7FFF"/>
<path d="M360.045 29.1192C302.77 5.78471 237.009 3.66339 177.612 26.2908L385.501 169.126" fill="#2B7FFF"/>
<path d="M500 165C476 108 431 60 373 34L419 282" fill="#2B7FFF"/>
<path d="M502.881 360.045C526.215 302.77 528.337 237.009 505.709 177.612L362.874 385.501" fill="#2B7FFF"/>
<path d="M367 500C424 476 472 431 498 373L250 419" fill="#2B7FFF"/>
<path d="M171.955 502.881C229.23 526.215 294.991 528.337 354.388 505.709L146.499 362.874" fill="#2B7FFF"/>
<path d="M32 367C56 424 101 472 159 498L113 250" fill="#2B7FFF"/>
<path d="M29.1192 171.955C5.78468 229.23 3.66336 294.991 26.2908 354.388L169.126 146.499" fill="#2B7FFF"/>
</g>
<defs>
<clipPath id="clip0_1_17">
<rect width="532" height="532" fill="white"/>
</clipPath>
</defs>
</svg>
